<?xml version="1.0" encoding="UTF-8" standalone="no"?>
<!-- Created with Inkscape (http://www.inkscape.org/) -->

<svg
   xmlns:dc="http://purl.org/dc/elements/1.1/"
   xmlns:cc="http://creativecommons.org/ns#"
   xmlns:rdf="http://www.w3.org/1999/02/22-rdf-syntax-ns#"
   xmlns:svg="http://www.w3.org/2000/svg"
   xmlns="http://www.w3.org/2000/svg"
   xmlns:sodipodi="http://sodipodi.sourceforge.net/DTD/sodipodi-0.dtd"
   xmlns:inkscape="http://www.inkscape.org/namespaces/inkscape"
   id="svg3215"
   height="16"
   width="16"
   version="1.0"
   inkscape:version="0.48.4 r9939"
   sodipodi:docname="gopenvpn-processing-2.svg">
  <defs
     id="defs8" />
  <sodipodi:namedview
     pagecolor="#ffffff"
     bordercolor="#666666"
     borderopacity="1"
     objecttolerance="10"
     gridtolerance="10"
     guidetolerance="10"
     inkscape:pageopacity="0"
     inkscape:pageshadow="2"
     inkscape:window-width="1280"
     inkscape:window-height="776"
     id="namedview6"
     showgrid="false"
     inkscape:zoom="20.85965"
     inkscape:cx="4.2778722"
     inkscape:cy="7.1668307"
     inkscape:window-x="0"
     inkscape:window-y="24"
     inkscape:window-maximized="1"
     inkscape:current-layer="svg3215" />
  <metadata
     id="metadata12">
    <rdf:RDF>
      <cc:Work
         rdf:about="">
        <dc:format>image/svg+xml</dc:format>
        <dc:type
           rdf:resource="http://purl.org/dc/dcmitype/StillImage" />
        <dc:title></dc:title>
      </cc:Work>
    </rdf:RDF>
  </metadata>
  <path
     style="fill:#ed7f22;fill-rule:evenodd;fill-opacity:1"
     inkscape:connector-curvature="0"
     d="m 2.3529973,7.8468177 c 0,0.551455 -0.03063,0.85782 0.122547,1.439913 0.09191,0.428912 0.245093,0.9803673 0.459546,1.3786423 0.03064,0.06127 0.03064,0.09191 0.06128,0.15318 0.03063,0.06128 0.06127,0.09191 0.09191,0.153184 l 0.367637,0.582093 c 0.245094,0.336999 0.582093,0.704636 0.888458,0.949729 0.09191,0.06127 0.153181,0.153181 0.245091,0.214456 l 0.5514579,0.367637 c 0,-0.275728 0.214453,-1.501185 0.2757277,-1.899459 C 5.5085609,10.267098 5.569833,10.84919 5.1409242,10.144552 4.9264683,9.7769147 4.8039213,9.5624587 4.6813753,9.1335497 4.4669223,8.2450917 4.5588313,7.4791807 4.9877403,6.6826317 l 0.2144558,-0.367637 c 0.1531811,-0.214456 0.5820928,-0.643367 0.7965487,-0.796548 0.2757277,-0.183819 0.1225466,-0.122547 0.4901836,-0.306365 0.674002,-0.337 1.041639,-0.337 1.715641,-0.337 0.3063652,0 0.8578207,0.153181 1.1641858,0.275728 0.2450933,0.09191 0.4595462,0.24509 0.6433638,0.367637 0.153184,0.09191 0.520821,0.428911 0.643368,0.61273 0.122547,0.183818 0.183819,0.214453 0.337,0.490183 0.337002,0.582093 0.490183,1.348004 0.398274,2.022006 -0.06127,0.520819 -0.214456,0.980368 -0.490184,1.4399143 l -0.306365,0.428909 c -0.153181,0.153184 -0.09191,0.09191 -0.03063,0.582091 l 0.275728,1.991372 c 0.214456,-0.09191 0.85782,-0.61273 1.041639,-0.796549 0.643368,-0.643364 1.133548,-1.348004 1.439913,-2.236461 0.398274,-1.2254573 0.428912,-2.2058243 0.122547,-3.4925563 -0.06127,-0.245091 -0.245091,-0.796549 -0.367637,-1.011002 l -0.367637,-0.643368 c -0.06127,-0.09191 -0.09191,-0.122543 -0.153184,-0.214453 -0.09191,-0.153184 -0.490184,-0.582092 -0.643365,-0.735276 -0.398274,-0.367637 -0.735277,-0.612731 -1.194823,-0.888458 -0.06127,-0.03064 -0.153181,-0.09191 -0.214456,-0.122544 -0.183818,-0.09191 -0.5514546,-0.245093 -0.7352736,-0.306365 -0.490183,-0.183819 -1.2254571,-0.306365 -1.7769154,-0.306365 -0.6127273,0 -1.1948201,0.122546 -1.7462785,0.306365 -0.1838185,0.06127 -0.3063651,0.122544 -0.4901836,0.214453 -0.1531811,0.06128 -0.3063622,0.153184 -0.4595462,0.245093 -0.428909,0.24509 -0.428909,0.24509 -0.827183,0.582093 -0.214456,0.183818 -0.337003,0.306365 -0.520821,0.490183 -0.306365,0.306366 -0.857821,1.102914 -1.011005,1.439914 l -0.214453,0.459546 c -0.183818,0.459549 -0.36764,1.22546 -0.36764,1.746278 z"
     class="fil1"
     id="_2_O" />
  <path
     style="fill:#ed7f22;fill-rule:evenodd;fill-opacity:1"
     inkscape:connector-curvature="0"
     d="m 6.2131946,8.0306357 c 0,0.337003 0,0.520821 0.1225437,0.857821 0.091909,0.214456 0.091909,0.214456 0.2450933,0.428912 0.2144559,0.275727 0.4289088,0.398274 0.7659113,0.551455 l -0.7046395,3.7989213 2.6960084,0 -0.7046366,-3.8295553 c 0.091909,-0.06128 0.2757277,-0.122547 0.4595463,-0.245094 0.5514552,-0.428911 0.7965479,-1.041639 0.6740019,-1.776916 -0.03064,-0.122543 -0.061272,-0.183818 -0.1225467,-0.306365 -0.2144556,-0.551455 -0.8884578,-1.041639 -1.5624599,-1.041639 -0.5514554,0 -0.8578205,0.06127 -1.3173667,0.428912 -0.091909,0.09191 -0.3370025,0.367637 -0.367637,0.490184 -0.091909,0.183818 -0.2144559,0.398274 -0.2144559,0.674002 z"
     class="fil0"
     id="_1_Sleutelgat" />
</svg>
